<svg width="48" height="48" viewBox="0 0 48 48" fill="none" xmlns="http://www.w3.org/2000/svg">
<g clip-path="url(#clip0)">
<rect width="48" height="48" fill="white"/>
<path d="M26.5 41.5C26.5 42.2066 26.0167 43.1723 24.2401 44.0418C22.4832 44.9017 19.7329 45.5 16 45.5C12.2671 45.5 9.51681 44.9017 7.75993 44.0418C5.98335 43.1723 5.5 42.2066 5.5 41.5C5.5 40.7934 5.98335 39.8277 7.75993 38.9582C9.51681 38.0983 12.2671 37.5 16 37.5C19.7329 37.5 22.4832 38.0983 24.2401 38.9582C26.0167 39.8277 26.5 40.7934 26.5 41.5Z" stroke="#152C5B" stroke-width="3"/>
<path d="M30.7222 10.897C30.7814 11.3216 30.8327 11.7354 30.8856 12.1624C30.9142 12.3935 30.9433 12.6286 30.9744 12.8712C31.2136 14.7365 30.9195 17.4254 30.1363 20.4988C29.3607 23.542 28.1372 26.8397 26.6223 29.8776C25.1029 32.9248 23.3224 35.6461 21.4611 37.5816C19.5651 39.5531 17.792 40.5 16.2776 40.5C14.8035 40.5 13.0567 39.5441 11.1695 37.5306C9.32143 35.5589 7.551 32.7944 6.03252 29.7206C4.51887 26.6567 3.28767 23.3507 2.49148 20.3415C1.68572 17.2961 1.36254 14.6921 1.55296 12.982C1.63492 12.2459 1.73337 11.5152 1.84981 10.785C2.18718 8.6695 3.73111 6.6129 6.3239 5.04505C8.90185 3.48617 12.3906 2.5 16.2776 2.5C20.1989 2.5 23.7143 3.50359 26.2984 5.08584C28.897 6.67703 30.4239 8.75947 30.7222 10.897Z" fill="white" stroke="#152C5B" stroke-width="3"/>
<circle cx="16.5" cy="14.5" r="5" stroke="#278998" stroke-width="3"/>
</g>
<defs>
<clipPath id="clip0">
<rect width="48" height="48" fill="white"/>
</clipPath>
</defs>
</svg>
