<svg width="48" height="48" viewBox="0 0 48 48" fill="none" xmlns="http://www.w3.org/2000/svg">
<rect width="48" height="48" fill="white"/>
<mask id="path-1-inside-1" fill="white">
<path fill-rule="evenodd" clip-rule="evenodd" d="M19.8858 6C19.5613 6 19.257 6.15747 19.0695 6.42238L14.4152 13H8C3.58172 13 0 16.5817 0 21V34C0 38.4183 3.58172 42 8 42H40C44.4183 42 48 38.4183 48 34V21C48 16.5817 44.4183 13 40 13H33.5848L28.9305 6.42238C28.743 6.15747 28.4387 6 28.1142 6H19.8858Z"/>
</mask>
<path d="M19.0695 6.42238L16.6206 4.68952L16.6206 4.68952L19.0695 6.42238ZM14.4152 13V16H15.9675L16.8641 14.7329L14.4152 13ZM33.5848 13L31.1359 14.7329L32.0325 16H33.5848V13ZM28.9305 6.42238L31.3794 4.68952L31.3794 4.68952L28.9305 6.42238ZM21.5185 8.15524C21.1436 8.68505 20.5349 9 19.8858 9V3C18.5878 3 17.3704 3.6299 16.6206 4.68952L21.5185 8.15524ZM16.8641 14.7329L21.5185 8.15524L16.6206 4.68952L11.9663 11.2671L16.8641 14.7329ZM8 16H14.4152V10H8V16ZM3 21C3 18.2386 5.23858 16 8 16V10C1.92487 10 -3 14.9249 -3 21H3ZM3 34V21H-3V34H3ZM8 39C5.23858 39 3 36.7614 3 34H-3C-3 40.0751 1.92487 45 8 45V39ZM40 39H8V45H40V39ZM45 34C45 36.7614 42.7614 39 40 39V45C46.0751 45 51 40.0751 51 34H45ZM45 21V34H51V21H45ZM40 16C42.7614 16 45 18.2386 45 21H51C51 14.9249 46.0751 10 40 10V16ZM33.5848 16H40V10H33.5848V16ZM26.4815 8.15524L31.1359 14.7329L36.0337 11.2671L31.3794 4.68952L26.4815 8.15524ZM28.1142 9C27.4651 9 26.8564 8.68505 26.4815 8.15524L31.3794 4.68952C30.6296 3.6299 29.4122 3 28.1142 3V9ZM19.8858 9H28.1142V3H19.8858V9Z" fill="#152C5B" mask="url(#path-1-inside-1)"/>
<circle cx="24.5" cy="26.5" r="5" stroke="#278998" stroke-width="3"/>
<line x1="36" y1="19" x2="40" y2="19" stroke="#152C5B" stroke-width="2" stroke-linecap="round"/>
</svg>
