<svg width="48" height="48" viewBox="0 0 48 48" fill="none" xmlns="http://www.w3.org/2000/svg">
<rect width="48" height="48" fill="white"/>
<path d="M2.5 25C2.5 23.6193 3.61929 22.5 5 22.5H21C22.3807 22.5 23.5 23.6193 23.5 25V34C23.5 35.3807 22.3807 36.5 21 36.5H5C3.61929 36.5 2.5 35.3807 2.5 34V25Z" stroke="#152C5B" stroke-width="3"/>
<line x1="19.5" y1="37.5" x2="19.5" y2="46.5" stroke="#152C5B" stroke-width="3" stroke-linecap="round"/>
<line x1="19.5" y1="37.5" x2="19.5" y2="46.5" stroke="#152C5B" stroke-width="3" stroke-linecap="round"/>
<line x1="19.5" y1="37.5" x2="19.5" y2="46.5" stroke="#152C5B" stroke-width="3" stroke-linecap="round"/>
<line x1="19.5" y1="37.5" x2="19.5" y2="46.5" stroke="#152C5B" stroke-width="3" stroke-linecap="round"/>
<line x1="19.5" y1="37.5" x2="19.5" y2="46.5" stroke="#152C5B" stroke-width="3" stroke-linecap="round"/>
<line x1="12.5" y1="13.5" x2="12.5" y2="22.5" stroke="#152C5B" stroke-width="3" stroke-linecap="round"/>
<line x1="12.5" y1="13.5" x2="12.5" y2="22.5" stroke="#152C5B" stroke-width="3" stroke-linecap="round"/>
<line x1="12.5" y1="13.5" x2="12.5" y2="22.5" stroke="#152C5B" stroke-width="3" stroke-linecap="round"/>
<line x1="12.5" y1="13.5" x2="12.5" y2="22.5" stroke="#152C5B" stroke-width="3" stroke-linecap="round"/>
<line x1="12.5" y1="13.5" x2="12.5" y2="22.5" stroke="#152C5B" stroke-width="3" stroke-linecap="round"/>
<line x1="18.5" y1="13.5" x2="18.5" y2="17.5" stroke="#152C5B" stroke-width="3" stroke-linecap="round"/>
<line x1="18.5" y1="13.5" x2="18.5" y2="17.5" stroke="#152C5B" stroke-width="3" stroke-linecap="round"/>
<line x1="18.5" y1="13.5" x2="18.5" y2="17.5" stroke="#152C5B" stroke-width="3" stroke-linecap="round"/>
<line x1="18.5" y1="13.5" x2="18.5" y2="17.5" stroke="#152C5B" stroke-width="3" stroke-linecap="round"/>
<line x1="18.5" y1="13.5" x2="18.5" y2="17.5" stroke="#152C5B" stroke-width="3" stroke-linecap="round"/>
<line x1="7.5" y1="37.5" x2="7.5" y2="46.5" stroke="#152C5B" stroke-width="3" stroke-linecap="round"/>
<line x1="7.5" y1="37.5" x2="7.5" y2="46.5" stroke="#152C5B" stroke-width="3" stroke-linecap="round"/>
<line x1="7.5" y1="37.5" x2="7.5" y2="46.5" stroke="#152C5B" stroke-width="3" stroke-linecap="round"/>
<line x1="7.5" y1="37.5" x2="7.5" y2="46.5" stroke="#152C5B" stroke-width="3" stroke-linecap="round"/>
<line x1="7.5" y1="37.5" x2="7.5" y2="46.5" stroke="#152C5B" stroke-width="3" stroke-linecap="round"/>
<path d="M8.84125 1.75076C8.93045 1.59563 9.09575 1.5 9.2747 1.5H15.7051C15.8945 1.5 16.0676 1.607 16.1523 1.77639L21.2111 11.894C21.3774 12.2265 21.1356 12.6176 20.7639 12.6176H3.45705C3.07255 12.6176 2.83194 12.2017 3.0236 11.8684L8.84125 1.75076Z" stroke="#278998" stroke-width="3"/>
</svg>
