<svg width="23" height="23" viewBox="0 0 23 23" fill="none" xmlns="http://www.w3.org/2000/svg">
<path d="M1 20V8.02174H22V20C22 21.1046 21.1046 22 20 22H3C1.89543 22 1 21.1046 1 20ZM22 6.02174H1V5C1 3.89543 1.89543 3 3 3H20C21.1046 3 22 3.89543 22 5V6.02174Z" stroke="white" stroke-width="2"/>
<line x1="6" y1="1" x2="6" y2="4" stroke="white" stroke-width="2" stroke-linecap="round"/>
<line x1="17" y1="1" x2="17" y2="4" stroke="white" stroke-width="2" stroke-linecap="round"/>
<mask id="path-4-inside-1" fill="white">
<rect x="4" y="10" width="6" height="6" rx="1"/>
</mask>
<rect x="4" y="10" width="6" height="6" rx="1" stroke="white" stroke-width="4" mask="url(#path-4-inside-1)"/>
<mask id="path-5-inside-2" fill="white">
<rect x="11" y="10" width="6" height="6" rx="1"/>
</mask>
<rect x="11" y="10" width="6" height="6" rx="1" stroke="white" stroke-width="4" mask="url(#path-5-inside-2)"/>
</svg>
