<svg width="48" height="48" viewBox="0 0 48 48" fill="none" xmlns="http://www.w3.org/2000/svg">
<rect width="48" height="48" fill="white"/>
<path d="M33 5L37 5.5L40 9V21" stroke="#278998" stroke-width="3" stroke-linecap="round"/>
<path d="M7.5 28.5H40.5V39C40.5 40.3807 39.3807 41.5 38 41.5H10C8.61929 41.5 7.5 40.3807 7.5 39V28.5Z" stroke="#152C5B" stroke-width="3"/>
<rect x="2.5" y="21.5" width="43" height="7" rx="2.5" stroke="#152C5B" stroke-width="3"/>
<line x1="14.5" y1="42.5" x2="14.5" y2="46.5" stroke="#152C5B" stroke-width="3" stroke-linecap="round"/>
<line x1="14.5" y1="42.5" x2="14.5" y2="46.5" stroke="#152C5B" stroke-width="3" stroke-linecap="round"/>
<line x1="14.5" y1="42.5" x2="14.5" y2="46.5" stroke="#152C5B" stroke-width="3" stroke-linecap="round"/>
<line x1="14.5" y1="42.5" x2="14.5" y2="46.5" stroke="#152C5B" stroke-width="3" stroke-linecap="round"/>
<line x1="14.5" y1="42.5" x2="14.5" y2="46.5" stroke="#152C5B" stroke-width="3" stroke-linecap="round"/>
<line x1="34.5" y1="42.5" x2="34.5" y2="46.5" stroke="#152C5B" stroke-width="3" stroke-linecap="round"/>
<line x1="34.5" y1="42.5" x2="34.5" y2="46.5" stroke="#152C5B" stroke-width="3" stroke-linecap="round"/>
<line x1="34.5" y1="42.5" x2="34.5" y2="46.5" stroke="#152C5B" stroke-width="3" stroke-linecap="round"/>
<line x1="34.5" y1="42.5" x2="34.5" y2="46.5" stroke="#152C5B" stroke-width="3" stroke-linecap="round"/>
<line x1="34.5" y1="42.5" x2="34.5" y2="46.5" stroke="#152C5B" stroke-width="3" stroke-linecap="round"/>
</svg>
